<svg xmlns="http://www.w3.org/2000/svg" viewBox="0 0 400 400" width="400" height="400" role="img">

  <defs>
    <linearGradient id="bg" x1="0" y1="0" x2="1" y2="1">
      <stop offset="0" stop-color="#334065"/><stop offset="1" stop-color="#1b2344"/>
    </linearGradient>
    <radialGradient id="dish" cx="50%" cy="46%" r="52%">
      <stop offset="0" stop-color="#ffffff"/><stop offset="1" stop-color="#ece4d6"/>
    </radialGradient>
    <filter id="soft" x="-30%" y="-30%" width="160%" height="160%">
      <feDropShadow dx="0" dy="6" stdDeviation="9" flood-color="#1c1430" flood-opacity=".22"/>
    </filter>
  </defs>
  <rect width="400" height="400" fill="url(#bg)"/>
  <circle cx="200" cy="205" r="140" fill="url(#dish)" opacity=".96"/>
  <circle cx="200" cy="205" r="140" fill="none" stroke="#ffffff" stroke-opacity=".5" stroke-width="3"/>

  <g filter="url(#soft)">
    <circle cx="200" cy="205" r="104" fill="#2c3a2f"/>
    <circle cx="200" cy="205" r="96" fill="#fbf7f0"/>
    <circle cx="245.1" cy="205.1" r="5.1" fill="#ffffff" opacity=".85"/><circle cx="147.4" cy="188.3" r="4.1" fill="#ffffff" opacity=".85"/><circle cx="261.8" cy="240.0" r="5.9" fill="#ffffff" opacity=".85"/><circle cx="119.9" cy="206.0" r="6.8" fill="#ffffff" opacity=".85"/><circle cx="260.2" cy="256.2" r="4.7" fill="#ffffff" opacity=".85"/><circle cx="225.8" cy="262.7" r="4.5" fill="#ffffff" opacity=".85"/><circle cx="228.2" cy="143.5" r="5.8" fill="#ffffff" opacity=".85"/><circle cx="219.3" cy="139.8" r="5.2" fill="#ffffff" opacity=".85"/><circle cx="152.2" cy="216.7" r="4.3" fill="#ffffff" opacity=".85"/><circle cx="266.8" cy="222.2" r="4.4" fill="#ffffff" opacity=".85"/><circle cx="262.2" cy="179.2" r="4.1" fill="#ffffff" opacity=".85"/><circle cx="271.2" cy="251.3" r="5.6" fill="#ffffff" opacity=".85"/><circle cx="141.6" cy="185.7" r="6.4" fill="#ffffff" opacity=".85"/><circle cx="139.4" cy="247.4" r="5.8" fill="#ffffff" opacity=".85"/><circle cx="157.7" cy="164.7" r="7.0" fill="#ffffff" opacity=".85"/><circle cx="168.3" cy="145.7" r="5.0" fill="#ffffff" opacity=".85"/><circle cx="193.6" cy="250.2" r="5.9" fill="#ffffff" opacity=".85"/><circle cx="264.4" cy="200.1" r="5.0" fill="#ffffff" opacity=".85"/><circle cx="193.4" cy="285.2" r="4.6" fill="#ffffff" opacity=".85"/><circle cx="148.9" cy="138.2" r="5.2" fill="#ffffff" opacity=".85"/><circle cx="224.7" cy="138.9" r="6.6" fill="#ffffff" opacity=".85"/><circle cx="161.0" cy="268.4" r="5.1" fill="#ffffff" opacity=".85"/>
    <circle cx="200" cy="205" r="46" fill="#e6ddcd" opacity=".5"/>
    <circle cx="200.0" cy="205.0" r="26" fill="#8fc46a"/>
    <circle cx="200" cy="205" r="104" fill="none" stroke="#00000022" stroke-width="2"/>
  </g>
</svg>
