<svg xmlns="http://www.w3.org/2000/svg" viewBox="0 0 400 400" width="400" height="400" role="img">

  <defs>
    <linearGradient id="bg" x1="0" y1="0" x2="1" y2="1">
      <stop offset="0" stop-color="#334065"/><stop offset="1" stop-color="#1b2344"/>
    </linearGradient>
    <radialGradient id="dish" cx="50%" cy="46%" r="52%">
      <stop offset="0" stop-color="#ffffff"/><stop offset="1" stop-color="#ece4d6"/>
    </radialGradient>
    <filter id="soft" x="-30%" y="-30%" width="160%" height="160%">
      <feDropShadow dx="0" dy="6" stdDeviation="9" flood-color="#1c1430" flood-opacity=".22"/>
    </filter>
  </defs>
  <rect width="400" height="400" fill="url(#bg)"/>
  <circle cx="200" cy="205" r="140" fill="url(#dish)" opacity=".96"/>
  <circle cx="200" cy="205" r="140" fill="none" stroke="#ffffff" stroke-opacity=".5" stroke-width="3"/>

  <g filter="url(#soft)">
    <circle cx="200" cy="205" r="104" fill="#2c3a2f"/>
    <circle cx="200" cy="205" r="96" fill="#fbf7f0"/>
    <circle cx="263.7" cy="205.0" r="4.9" fill="#ffffff" opacity=".85"/><circle cx="278.6" cy="227.9" r="5.2" fill="#ffffff" opacity=".85"/><circle cx="135.8" cy="197.9" r="5.4" fill="#ffffff" opacity=".85"/><circle cx="189.4" cy="257.6" r="6.1" fill="#ffffff" opacity=".85"/><circle cx="238.5" cy="251.9" r="5.8" fill="#ffffff" opacity=".85"/><circle cx="228.2" cy="151.1" r="4.3" fill="#ffffff" opacity=".85"/><circle cx="215.4" cy="279.8" r="5.8" fill="#ffffff" opacity=".85"/><circle cx="138.7" cy="183.2" r="4.7" fill="#ffffff" opacity=".85"/><circle cx="171.9" cy="278.9" r="4.0" fill="#ffffff" opacity=".85"/><circle cx="224.3" cy="270.0" r="6.1" fill="#ffffff" opacity=".85"/><circle cx="260.7" cy="210.2" r="6.7" fill="#ffffff" opacity=".85"/><circle cx="152.2" cy="198.3" r="5.8" fill="#ffffff" opacity=".85"/><circle cx="256.2" cy="190.2" r="6.7" fill="#ffffff" opacity=".85"/><circle cx="275.0" cy="213.9" r="6.4" fill="#ffffff" opacity=".85"/><circle cx="253.8" cy="187.3" r="4.5" fill="#ffffff" opacity=".85"/><circle cx="226.3" cy="123.4" r="6.2" fill="#ffffff" opacity=".85"/><circle cx="279.2" cy="204.9" r="5.3" fill="#ffffff" opacity=".85"/><circle cx="197.7" cy="276.0" r="4.1" fill="#ffffff" opacity=".85"/><circle cx="276.9" cy="181.0" r="5.1" fill="#ffffff" opacity=".85"/><circle cx="231.0" cy="173.7" r="6.0" fill="#ffffff" opacity=".85"/><circle cx="265.0" cy="184.4" r="6.0" fill="#ffffff" opacity=".85"/><circle cx="118.6" cy="200.2" r="5.3" fill="#ffffff" opacity=".85"/>
    <circle cx="200" cy="205" r="46" fill="#e6ddcd" opacity=".5"/>
    <circle cx="220.0" cy="205.0" r="19" fill="#f2a08c"/><circle cx="190.0" cy="222.3" r="19" fill="#8fc46a"/><circle cx="190.0" cy="187.7" r="19" fill="#f4c542"/>
    <circle cx="200" cy="205" r="104" fill="none" stroke="#00000022" stroke-width="2"/>
  </g>
</svg>
