<svg xmlns="http://www.w3.org/2000/svg" viewBox="0 0 400 400" width="400" height="400" role="img">

  <defs>
    <linearGradient id="bg" x1="0" y1="0" x2="1" y2="1">
      <stop offset="0" stop-color="#2b3a5e"/><stop offset="1" stop-color="#171d3a"/>
    </linearGradient>
    <radialGradient id="dish" cx="50%" cy="46%" r="52%">
      <stop offset="0" stop-color="#ffffff"/><stop offset="1" stop-color="#ece4d6"/>
    </radialGradient>
    <filter id="soft" x="-30%" y="-30%" width="160%" height="160%">
      <feDropShadow dx="0" dy="6" stdDeviation="9" flood-color="#1c1430" flood-opacity=".22"/>
    </filter>
  </defs>
  <rect width="400" height="400" fill="url(#bg)"/>
  <circle cx="200" cy="205" r="140" fill="url(#dish)" opacity=".96"/>
  <circle cx="200" cy="205" r="140" fill="none" stroke="#ffffff" stroke-opacity=".5" stroke-width="3"/>
<g filter="url(#soft)">
    <g transform="rotate(-16 118 150)">
        <rect x="118" y="150" width="66" height="112" rx="16" fill="#f68a52"/>
        <path d="M126 174 h50 M126 204 h50 M126 234 h50"
              stroke="#ffffff" stroke-opacity=".45" stroke-width="5" stroke-linecap="round"/>
      </g><g transform="rotate(-16 176 168)">
        <rect x="176" y="168" width="66" height="112" rx="16" fill="#d6404f"/>
        <path d="M184 192 h50 M184 222 h50 M184 252 h50"
              stroke="#ffffff" stroke-opacity=".45" stroke-width="5" stroke-linecap="round"/>
      </g><g transform="rotate(-16 234 150)">
        <rect x="234" y="150" width="66" height="112" rx="16" fill="#f4d9a3"/>
        <path d="M242 174 h50 M242 204 h50 M242 234 h50"
              stroke="#ffffff" stroke-opacity=".45" stroke-width="5" stroke-linecap="round"/>
      </g>
    <path d="M150 316 q50 -18 100 0" stroke="#7bbf6a" stroke-width="10" fill="none" stroke-linecap="round" opacity=".8"/>
  </g>
</svg>
