<svg xmlns="http://www.w3.org/2000/svg" viewBox="0 0 400 400" width="400" height="400" role="img">

  <defs>
    <linearGradient id="bg" x1="0" y1="0" x2="1" y2="1">
      <stop offset="0" stop-color="#40355a"/><stop offset="1" stop-color="#201a38"/>
    </linearGradient>
    <radialGradient id="dish" cx="50%" cy="46%" r="52%">
      <stop offset="0" stop-color="#ffffff"/><stop offset="1" stop-color="#ece4d6"/>
    </radialGradient>
    <filter id="soft" x="-30%" y="-30%" width="160%" height="160%">
      <feDropShadow dx="0" dy="6" stdDeviation="9" flood-color="#1c1430" flood-opacity=".22"/>
    </filter>
  </defs>
  <rect width="400" height="400" fill="url(#bg)"/>
  <circle cx="200" cy="205" r="140" fill="url(#dish)" opacity=".96"/>
  <circle cx="200" cy="205" r="140" fill="none" stroke="#ffffff" stroke-opacity=".5" stroke-width="3"/>
<g filter="url(#soft)"><g><circle cx="251.17080812440005" cy="229.84426882938155" r="34" fill="#d99a4e"/>
        <ellipse cx="241.17080812440005" cy="217.84426882938155" rx="11" ry="8" fill="#ffffff" opacity=".45"/>
        <path d="M225.17080812440005 209.84426882938155 q26 16 52 0" stroke="#7a4a22" stroke-width="6" fill="none" stroke-linecap="round"/></g><g><circle cx="164.9921666495078" cy="241.31476705602586" r="34" fill="#d99a4e"/>
        <ellipse cx="154.9921666495078" cy="229.31476705602586" rx="11" ry="8" fill="#ffffff" opacity=".45"/>
        <path d="M138.9921666495078 221.31476705602586 q26 16 52 0" stroke="#7a4a22" stroke-width="6" fill="none" stroke-linecap="round"/></g><g><circle cx="148.82919187559995" cy="180.15573117061845" r="34" fill="#d99a4e"/>
        <ellipse cx="138.82919187559995" cy="168.15573117061845" rx="11" ry="8" fill="#ffffff" opacity=".45"/>
        <path d="M122.82919187559995 160.15573117061845 q26 16 52 0" stroke="#7a4a22" stroke-width="6" fill="none" stroke-linecap="round"/></g><g><circle cx="235.00783335049215" cy="168.68523294397414" r="34" fill="#d99a4e"/>
        <ellipse cx="225.00783335049215" cy="156.68523294397414" rx="11" ry="8" fill="#ffffff" opacity=".45"/>
        <path d="M209.00783335049215 148.68523294397414 q26 16 52 0" stroke="#7a4a22" stroke-width="6" fill="none" stroke-linecap="round"/></g></g>
</svg>
